<svg width="30" height="24" viewBox="0 0 30 24" fill="none" xmlns="http://www.w3.org/2000/svg">
<path d="M2.99439 1.5C2.16626 1.5 1.4972 2.17031 1.4972 3V16.5C1.4972 17.3297 2.16626 18 2.99439 18H3.25172C3.86932 16.2516 5.53027 15 7.48598 15C9.44169 15 11.1073 16.2516 11.7202 18H17.9664V3C17.9664 2.17031 17.2973 1.5 16.4692 1.5H2.99439ZM2.99439 19.5C1.3428 19.5 0 18.1547 0 16.5V3C0 1.34531 1.3428 0 2.99439 0H16.4692C18.1208 0 19.4636 1.34531 19.4636 3V4.5H22.5188C23.1738 4.5 23.7961 4.78594 24.2218 5.2875L27.904 9.59063C28.2549 9.99844 28.4467 10.5188 28.4467 11.0531V18H29.1953C29.6071 18 29.9439 18.3375 29.9439 18.75C29.9439 19.1625 29.6071 19.5 29.1953 19.5H26.9495C26.9495 21.9844 24.9377 24 22.4579 24C19.9782 24 17.9664 21.9844 17.9664 19.5H11.9776C11.9776 21.9844 9.96571 24 7.48598 24C5.00625 24 2.99439 21.9844 2.99439 19.5ZM19.4636 10.5H26.7109L23.0849 6.2625C22.9445 6.09844 22.734 6 22.5188 6H19.4636V10.5ZM19.4636 12V16.1437C20.2589 15.4312 21.307 15 22.4579 15C24.4137 15 26.0793 16.2516 26.6922 18H26.9495V12H19.4636ZM10.4804 19.5C10.4804 18.7044 10.1649 17.9413 9.60334 17.3787C9.04178 16.8161 8.28014 16.5 7.48598 16.5C6.69182 16.5 5.93018 16.8161 5.36863 17.3787C4.80707 17.9413 4.49159 18.7044 4.49159 19.5C4.49159 20.2956 4.80707 21.0587 5.36863 21.6213C5.93018 22.1839 6.69182 22.5 7.48598 22.5C8.28014 22.5 9.04178 22.1839 9.60334 21.6213C10.1649 21.0587 10.4804 20.2956 10.4804 19.5ZM22.4579 22.5C23.2521 22.5 24.0137 22.1839 24.5753 21.6213C25.1369 21.0587 25.4523 20.2956 25.4523 19.5C25.4523 18.7044 25.1369 17.9413 24.5753 17.3787C24.0137 16.8161 23.2521 16.5 22.4579 16.5C21.6638 16.5 20.9021 16.8161 20.3406 17.3787C19.779 17.9413 19.4636 18.7044 19.4636 19.5C19.4636 20.2956 19.779 21.0587 20.3406 21.6213C20.9021 22.1839 21.6638 22.5 22.4579 22.5Z" fill="white"/>
</svg>
