<svg width="21" height="24" viewBox="0 0 21 24" fill="none" xmlns="http://www.w3.org/2000/svg">
<path d="M11.2212 5.12767C11.5068 5.48861 11.9468 5.69487 12.4056 5.69018C12.8644 5.68549 13.2997 5.46986 13.5806 5.10423C13.9738 4.58859 14.3718 4.08702 14.779 3.64638C16.0805 4.99641 17.218 6.71677 18.0466 8.38556C18.9642 10.2325 19.4744 11.9341 19.4744 12.9607C19.4744 18.2014 15.3923 22.5 10.4862 22.5C5.524 22.5 1.49803 18.2061 1.49803 12.9607C1.49803 11.5591 2.17215 9.64184 3.41271 7.55116C4.569 5.60112 6.18875 3.55263 8.10343 1.70571C9.20354 2.7698 10.2428 3.90889 11.2212 5.12767ZM12.3915 4.19014C12.0685 3.78701 11.7408 3.39325 11.4085 3.00886C10.5611 2.04322 9.67636 1.12444 8.75413 0.257236C8.38899 -0.08496 7.82254 -0.08496 7.4574 0.252548C5.28057 2.2776 3.43143 4.57922 2.12534 6.78239C0.833281 8.96213 0 11.1606 0 12.9607C0 18.9421 4.60645 24 10.4862 24C16.3005 24 20.9725 18.9468 20.9725 12.9607C20.9725 11.5872 20.3405 9.62778 19.3902 7.71523C18.4211 5.77456 17.0542 3.73076 15.4344 2.18385C15.0693 1.83227 14.4935 1.83227 14.1236 2.17916C13.8568 2.43229 13.5993 2.70886 13.3512 2.9948C13.0095 3.38856 12.6865 3.80107 12.3915 4.19014ZM5.99213 14.381C5.99213 13.2701 6.60071 12.2107 8.19705 10.2044C8.98352 11.2028 10.3598 12.956 11.1276 13.9357C11.7128 14.681 12.8269 14.6998 13.4402 13.9826L14.5356 12.7075C15.3689 14.5263 14.9757 16.767 13.37 17.8967C12.5039 18.4686 11.5957 18.7499 10.5658 18.7499C9.24568 18.7499 8.10343 18.328 7.29823 17.592C6.5024 16.8655 5.98745 15.792 5.98745 14.381H5.99213ZM9.36271 9.26214C8.76818 8.50744 7.63061 8.50275 7.0314 9.25745C5.46782 11.2216 4.4941 12.67 4.4941 14.381C4.4941 16.1857 5.16353 17.6717 6.29174 18.6983C7.41058 19.7202 8.93202 20.2499 10.5658 20.2499C11.9 20.2499 13.0984 19.8749 14.2032 19.1389L14.2173 19.1296C16.6141 17.4561 16.984 14.2451 15.8043 11.8825C15.3034 10.8794 14.0581 10.9591 13.4683 11.6434L12.3026 13.0029C11.5302 12.0185 10.1492 10.2606 9.36271 9.26214Z" fill="white"/>
</svg>
