<svg width="26" height="24" viewBox="0 0 26 24" fill="none" xmlns="http://www.w3.org/2000/svg">
<path d="M23.5808 5.66719C24.4546 7.05469 23.5948 8.78906 22.2163 8.97656C22.0948 8.99063 21.9733 9 21.8472 9C21.0761 9 20.3892 8.6625 19.9079 8.13281C19.6229 7.81875 19.221 7.64062 18.8004 7.64062C18.3799 7.64062 17.978 7.81875 17.6929 8.13281C17.2163 8.65781 16.5341 8.99531 15.7584 8.99531C14.9873 8.99531 14.2957 8.65781 13.8238 8.13281C13.5387 7.81875 13.1369 7.64062 12.7163 7.64062C12.2957 7.64062 11.8892 7.81875 11.6088 8.13281C11.1229 8.6625 10.4359 9 9.66023 9C8.88921 9 8.19762 8.6625 7.72566 8.1375C7.44061 7.82344 7.03874 7.64531 6.61818 7.64531C6.19762 7.64531 5.79108 7.82344 5.5107 8.1375C5.02939 8.6625 4.34715 9 3.57145 9C3.44995 9 3.32846 8.99063 3.20229 8.97656C1.83313 8.78906 0.97332 7.05469 1.84248 5.66719L4.46865 1.5H20.9546L23.5808 5.66719ZM21.8425 10.5C22.0341 10.5 22.221 10.4859 22.4079 10.4625C25.0014 10.1156 26.2303 7.06406 24.8425 4.86563L22.1649 0.614063C21.9266 0.234375 21.5014 0 21.0481 0H4.37519C3.92192 0 3.49668 0.234375 3.25837 0.614063L0.576123 4.86563C-0.807054 7.05938 0.417245 10.1109 3.00136 10.4625C3.18827 10.4859 3.37986 10.5 3.56678 10.5C4.48267 10.5 5.31911 10.2 5.99668 9.70312C6.22098 9.53906 6.42659 9.34688 6.61351 9.14531C6.80042 9.35156 7.00603 9.53906 7.23033 9.70312C7.9079 10.2 8.74435 10.5 9.66023 10.5C10.5761 10.5 11.4126 10.2 12.0901 9.70312C12.3144 9.53906 12.52 9.34688 12.707 9.14062C12.8939 9.34688 13.0995 9.53437 13.3238 9.69844C14.0014 10.1953 14.8378 10.4953 15.7537 10.4953C16.6789 10.4953 17.52 10.1906 18.1976 9.68438C18.4172 9.52031 18.6182 9.3375 18.8004 9.13594C18.9827 9.3375 19.1883 9.525 19.4079 9.68906C20.0855 10.1906 20.9266 10.4953 21.8472 10.4953L21.8425 10.5ZM2.99201 12C2.5808 12 2.24435 12.3375 2.24435 12.75V16.5V17.25V18V21C2.24435 22.6547 3.58547 24 5.235 24H20.1883C21.8378 24 23.1789 22.6547 23.1789 21V18V17.25V16.5V12.75C23.1789 12.3375 22.8425 12 22.4313 12C22.02 12 21.6836 12.3375 21.6836 12.75V16.5H3.73967V12.75C3.73967 12.3375 3.40323 12 2.99201 12ZM3.73967 18H21.6836V21C21.6836 21.8297 21.0154 22.5 20.1883 22.5H5.235C4.4079 22.5 3.73967 21.8297 3.73967 21V18Z" fill="white"/>
</svg>
